<?xml version="1.0" standalone="no"?><svg xmlns="http://www.w3.org/2000/svg" viewBox="0 0 1440 320"><path fill="#000b76" fill-opacity="1" d="M0,192L24,176C48,160,96,128,144,133.3C192,139,240,181,288,192C336,203,384,181,432,181.3C480,181,528,203,576,192C624,181,672,139,720,138.7C768,139,816,181,864,165.3C912,149,960,75,1008,42.7C1056,11,1104,21,1152,64C1200,107,1248,181,1296,208C1344,235,1392,213,1416,202.7L1440,192L1440,0L1416,0C1392,0,1344,0,1296,0C1248,0,1200,0,1152,0C1104,0,1056,0,1008,0C960,0,912,0,864,0C816,0,768,0,720,0C672,0,624,0,576,0C528,0,480,0,432,0C384,0,336,0,288,0C240,0,192,0,144,0C96,0,48,0,24,0L0,0Z"></path></svg>